<svg width="160" height="116" viewBox="0 0 190 146" fill="none" xmlns="http://www.w3.org/2000/svg">
<path d="M95.9348 53.1339C99.0805 53.1339 102.078 53.8195 104.804 55.0527C105.008 50.4158 106.541 46.1278 109 42.5781C107.269 42.2008 105.483 42 103.654 42H86.3284C84.5036 42 82.7178 42.1988 81 42.572C83.6204 46.3631 85.1865 50.9899 85.2118 56C88.3964 54.1744 92.0498 53.1339 95.9348 53.1339Z" fill="white"/>
<path d="M95 41C106.046 41 115 31.8218 115 20.5C115 9.17816 106.046 0 95 0C83.9543 0 75 9.17816 75 20.5C75 31.8218 83.9543 41 95 41Z" fill="white"/>
<path d="M126.993 76C137.493 76 146 67.4922 146 57C146 46.5038 137.493 38 126.993 38C116.591 38 108.157 46.3525 108 56.7131C113.993 60.4699 118.195 66.8242 118.962 74.2002C121.403 75.3437 124.118 76 126.993 76Z" fill="white"/>
<path d="M62.5019 38C52.28 38 44 46.5062 44 57.001C44 67.4957 52.28 76 62.5019 76C66.1216 76 69.4868 74.9134 72.3412 73.0683C73.2499 66.9947 76.42 61.6834 80.9483 58.0679C80.9675 57.7123 81 57.3606 81 57.001C81 46.5062 72.7161 38 62.5019 38Z" fill="white"/>
<path d="M139 37.7112C144.836 41.4679 148.928 47.8222 149.672 55.2002C152.047 56.3418 154.692 57 157.492 57C167.717 57 176 48.4942 176 38C176 27.5058 167.717 19 157.492 19C147.366 18.998 139.153 27.3525 139 37.7112Z" fill="white"/>
<path d="M95.5 95C105.165 95 113 86.4934 113 76C113 65.5066 105.165 57 95.5 57C85.835 57 78 65.5066 78 76C78 86.4934 85.835 95 95.5 95Z" fill="white"/>
<path d="M134.961 78H119.145C118.972 84.0108 116.273 89.4239 112 93.3149C123.784 96.6469 132.409 107.03 132.409 119.295V125C148.023 124.452 157.023 120.253 157.615 119.965L158.87 119.36H159V100.844C159.004 88.2468 148.218 78 134.961 78Z" fill="white"/>
<path d="M166.466 59H150.991C150.823 65.2669 148.18 70.9105 144 74.9672C155.533 78.4411 163.972 89.2648 163.972 102.052V108C179.252 107.431 188.061 103.053 188.641 102.751L189.869 102.122H190V82.8171C190 69.6852 179.444 59 166.466 59Z" fill="white"/>
<path d="M79 93.3517C74.7387 89.4698 72.0406 84.0733 71.842 78.0869C71.2561 78.0462 70.674 78 70.0745 78H54.1058C40.8138 78 30 88.2733 30 100.901V119.463L30.0487 119.75L31.3938 120.153C41.5691 123.173 50.6524 124.56 58.5384 125V119.395C58.5423 107.102 67.1836 96.6935 79 93.3517Z" fill="white"/>
<path d="M103.596 97H87.4159C73.953 97 63 107.675 63 120.786V140.068L63.0513 140.369L64.4118 140.784C77.2595 144.694 88.4215 146 97.6058 146C115.551 146 125.949 141.015 126.592 140.698L127.866 140.068H128V120.786C128.006 107.671 117.055 97 103.596 97Z" fill="white"/>
<path d="M31.5091 57C34.4604 57 37.2462 56.3591 39.7517 55.2477C40.5384 48.0642 44.8493 41.8756 51 38.2178C50.8386 28.1342 42.1825 20 31.5091 20C20.7308 20 12 28.2815 12 38.501C12 48.7185 20.7308 57 31.5091 57Z" fill="white"/>
<path d="M46 74.9704C41.8223 70.9139 39.1785 65.2685 39.0112 59H23.5341C10.5563 59.0019 0 69.6867 0 82.8181V102.124H0.131146L1.35898 102.753C1.94058 103.049 10.7464 107.433 26.0278 108V102.053C26.0278 89.2675 34.4648 78.4423 46 74.9704Z" fill="white"/>
<path d="M53.7553 36.1769C56.1463 35.2601 59.7948 34.1347 63.2783 34.1347C67.3327 34.1347 71.2986 35.1217 74.8357 37C75.6231 36.2686 76.3445 35.4728 77 34.6204C73.6402 30.4443 71.8057 25.3262 71.8057 20.0618C71.8057 16.5158 72.6425 12.9971 74.2379 9.8002C70.606 6.69499 65.9723 5 61.048 5C52.0857 5 44.2839 10.7403 42 18.8252C48.6949 22.5116 53.0565 28.9561 53.7553 36.1769Z" fill="white"/>
<path d="M113 34.0176C113.686 35.0758 114.489 36.0726 115.399 37C118.642 35.4305 122.208 34.6061 125.798 34.6061C129.329 34.6061 132.713 35.482 134.93 36.2153C135.625 28.2628 140.581 21.2437 148 17.6866C145.28 10.1464 137.916 5 129.578 5C124.187 5 119.081 7.14813 115.395 10.9292C116.69 13.9254 117.346 17.0743 117.346 20.3025C117.344 25.2467 115.845 29.9591 113 34.0176Z" fill="white"/>
</svg>
